:SAMPLES-PER-SECOND 30
:FULLY-SPECIFIED
:DEGREES
805
root  26.9038 38.6058 7.36291 126.3 84.7046 130.529
RightUpLeg  -19.5903 8.43087 -7.66515
RightLeg  52.8457 2.85583 3.67153
RightFoot  -0.0606455 -0.930813 9.40265
RightToes  -1.33073e-015 0 -3.6325e-017
Spine  6.87185 0.0941135 -2.39727
Spine1  7.5436 -0.18651 -2.19761
HEad  -22.3023 3.3496 -6.60329
LeftShoulder1  -0.136861 3.84587 -33.824
LeftArm  -1.95228 -0.560133 -43.2225
LeftForeArm  41.3921 -5.70684 -9.98314
LeftHand  -0.0780784 9.13204 -0.82691
RightShoulder  -0.795401 -5.65209 30.3652
RightArm  24.016 -6.98958 42.6914
RightForeArm  2.38719 17.7756 5.82756
RightHand  -0.0539686 4.70214 -0.915143
LeftUpLeg  -1.71111 3.10882 -9.50251
LeftLeg  18.5138 2.88142 1.18011
LeftFoot  -11.4039 0.0741493 9.7411
LeftToes  -1.63346e-009 7.54925e-011 9.86887e-012
806
root  28.1169 38.6267 7.15711 133.953 84.7043 138.632
RightUpLeg  -20.2973 8.01707 -7.02649
RightLeg  42.043 2.43081 2.06399
RightFoot  -0.579023 -0.824475 8.70096
RightToes  -1.33073e-015 0 -3.6325e-017
Spine  7.52439 -0.159119 -2.23347
Spine1  7.00625 -0.428274 -1.62147
HEad  -22.9318 3.88325 -5.919
LeftShoulder1  -0.0694431 3.68043 -33.2706
LeftArm  0.255579 -3.63248 -44.7891
LeftForeArm  38.4389 -7.88423 -10.0784
LeftHand  -0.0492411 8.97618 -0.00275307
RightShoulder  -0.876846 -5.84582 30.8221
RightArm  21.8747 -4.5389 42.6099
RightForeArm  2.46696 17.3212 5.80249
RightHand  -0.0857836 4.47072 -1.26758
LeftUpLeg  1.43796 3.88428 -8.84017
LeftLeg  17.4477 1.75932 0.78754
LeftFoot  -12.7673 0.20027 9.89046
LeftToes  -1.63346e-009 7.54925e-011 9.86887e-012
807
root  29.4094 38.5636 6.94828 140.969 84.2201 145.842
RightUpLeg  -19.7225 6.87908 -6.62147
RightLeg  28.8879 2.34196 1.24962
RightFoot  -0.840804 -0.838316 9.0397
RightToes  -1.33073e-015 0 -3.6325e-017
Spine  7.00806 -0.310879 -2.48007
Spine1  7.59649 -0.696906 -0.53032
HEad  -23.0787 3.12879 -4.54835
LeftShoulder1  -0.026234 3.57014 -33.2057
LeftArm  4.36372 -6.7858 -46.197
LeftForeArm  33.332 -10.7506 -9.75737
LeftHand  -0.0210988 8.26164 0.940185
RightShoulder  -0.833989 -5.75463 30.4223
RightArm  19.6698 -2.49965 43.2394
RightForeArm  2.26262 16.662 5.85054
RightHand  -0.220095 5.51857 -2.67683
LeftUpLeg  4.43359 4.22759 -8.56212
LeftLeg  16.3728 0.757301 0.607793
LeftFoot  -14.2963 0.340311 9.83407
LeftToes  -1.63346e-009 7.54925e-011 9.86887e-012
808
root  30.7273 38.4511 6.74204 142.196 83.9184 146.927
RightUpLeg  -18.8654 3.79383 -5.58498
RightLeg  15.1842 4.61024 0.71823
RightFoot  -1.13396 -0.815133 9.02522
RightToes  -1.33073e-015 0 -3.6325e-017
Spine  6.26392 -0.240712 -2.19738
Spine1  8.0522 -0.478467 -0.323312
HEad  -23.0565 2.53268 -3.25924
LeftShoulder1  0.0576122 3.35602 -32.8024
LeftArm  9.93261 -8.99705 -47.5812
LeftForeArm  26.9353 -14.6276 -8.36262
LeftHand  -0.00691051 7.11358 1.95389
RightShoulder  -0.867512 -5.83421 30.6043
RightArm  18.0597 -0.280934 43.53
RightForeArm  3.31796 15.4221 6.06995
RightHand  -0.199171 6.13696 -2.33246
LeftUpLeg  7.21582 4.66047 -8.35637
LeftLeg  15.1107 0.0419458 0.189166
LeftFoot  -15.651 0.456894 9.6144
LeftToes  -1.63346e-009 7.54925e-011 9.86887e-012
809
root  32.1065 38.2873 6.53502 143.819 83.3062 148.76
RightUpLeg  -17.8142 -3.4651 -3.15743
RightLeg  4.17714 11.2138 -0.084043
RightFoot  -2.49452 -0.775192 9.80097
RightToes  -1.33073e-015 0 -3.6325e-017
Spine  5.50357 -0.167446 -2.20718
Spine1  8.97354 -0.487095 0.452293
HEad  -22.6938 2.37668 -2.74199
LeftShoulder1  0.0783532 3.30175 -32.6523
LeftArm  15.5213 -10.733 -48.8583
LeftForeArm  20.569 -18.4613 -6.30776
LeftHand  -0.00692732 6.63247 2.39489
RightShoulder  -0.803113 -5.68972 30.1049
RightArm  16.3603 1.31837 44.3316
RightForeArm  5.08926 14.1702 6.22755
RightHand  -0.132728 5.32836 -1.75418
LeftUpLeg  10.5813 5.1045 -8.08734
LeftLeg  13.7081 -1.04426 -0.307664
LeftFoot  -17.121 0.57962 9.40415
LeftToes  -1.63346e-009 7.54925e-011 9.86887e-012
810
root  33.5612 37.9955 6.35509 144.647 82.7748 150.187
RightUpLeg  -16.8401 -5.23586 -2.52411
RightLeg  -1.98388 10.4553 0.02554
RightFoot  -3.92423 -0.726364 10.6245
RightToes  -1.33073e-015 0 -3.6325e-017
Spine  5.45549 -0.138256 -1.97391
Spine1  9.41283 -0.407333 0.431403
HEad  -22.305 1.00779 -1.42623
LeftShoulder1  0.0738349 3.31126 -32.2151
LeftArm  18.3007 -11.7711 -49.8815
LeftForeArm  16.5327 -21.9241 -4.54705
LeftHand  -0.0107428 6.46477 2.50789
RightShoulder  -0.786452 -5.64017 30.1642
RightArm  16.0276 3.19616 44.7461
RightForeArm  5.89878 12.4871 6.79166
RightHand  -0.0759741 5.51793 -1.12804
LeftUpLeg  13.9631 5.54263 -7.76649
LeftLeg  13.5035 -2.18535 -0.517473
LeftFoot  -19.0966 0.737039 9.16718
LeftToes  -1.63346e-009 7.54925e-011 9.86887e-012
811
root  35.0397 37.6379 6.22677 146.719 82.3671 152.175
RightUpLeg  -18.3524 -4.48604 -1.83685
RightLeg  0.911517 5.28106 0.262229
RightFoot  -3.65523 -0.539438 8.0842
RightToes  -1.33073e-015 0 -3.6325e-017
Spine  5.03349 -0.00178926 -1.63062
Spine1  9.61572 -0.300612 0.711849
HEad  -22.1962 0.289822 -0.920225
LeftShoulder1  0.0447902 3.38733 -32.4851
LeftArm  18.2462 -12.2702 -50.2323
LeftForeArm  15.5878 -24.8344 -4.41304
LeftHand  -0.0055986 5.96034 4.35651
RightShoulder  -0.756012 -5.56133 30.0766
RightArm  16.0171 4.45007 45.1526
RightForeArm  7.18921 11.4416 7.16499
RightHand  -0.118707 5.14363 -1.61044
LeftUpLeg  16.0121 5.70649 -7.33524
LeftLeg  14.5181 -3.02013 -0.636384
LeftFoot  -21.1871 0.826925 8.11791
LeftToes  -1.63346e-009 7.54925e-011 9.86887e-012
812
root  36.5601 37.3807 6.04063 150.956 82.6388 156.364
RightUpLeg  -20.399 -4.01587 -0.480543
RightLeg  7.76547 2.3203 0.707757
RightFoot  1.99003 -0.16358 1.56376
RightToes  -1.33073e-015 0 -3.6325e-017
Spine  4.60131 0.0263481 0.43739
Spine1  10.0259 -0.0660163 0.124341
HEad  -21.9225 -0.212866 -1.00376
LeftShoulder1  -0.0266665 3.57253 -32.7571
LeftArm  17.1208 -11.9849 -49.961
LeftForeArm  15.7271 -27.1833 -5.00644
LeftHand  -0.030579 5.14362 4.65326
RightShoulder  -0.725262 -5.48894 29.8584
RightArm  16.639 5.93117 45.8274
RightForeArm  8.16611 9.9931 7.86369
RightHand  -0.162931 5.18751 -2.08874
LeftUpLeg  17.7883 5.19672 -6.68212
LeftLeg  16.0597 -3.01029 -0.581638
LeftFoot  -22.3081 0.736673 6.25471
LeftToes  -1.63346e-009 7.54925e-011 9.86887e-012
813
root  38.1948 37.1956 5.83821 164.683 82.5618 170.607
RightUpLeg  -21.2094 -3.27588 1.24298
RightLeg  13.7556 2.80211 0.744749
RightFoot  7.40688 0.201572 -1.00048
RightToes  -1.33073e-015 0 -3.6325e-017
Spine  4.6703 -0.387804 3.93936
Spine1  9.90363 -0.172616 -0.607319
HEad  -21.3615 -0.484453 -1.53018
LeftShoulder1  -0.0204279 3.55597 -32.5488
LeftArm  15.7689 -9.91746 -49.8441
LeftForeArm  16.6791 -28.2721 -5.20325
LeftHand  -0.0859966 3.52278 4.28353
RightShoulder  -0.78553 -5.63181 30.2487
RightArm  16.9203 5.6739 45.6522
RightForeArm  10.4876 10.5701 7.62559
RightHand  -0.0569935 5.04591 -0.943079
LeftUpLeg  19.4969 4.28056 -4.52513
LeftLeg  19.2288 -3.96007 -1.19514
LeftFoot  -22.6051 0.493399 3.71061
LeftToes  -1.63346e-009 7.54925e-011 9.86887e-012
814
root  39.8561 36.946 5.63261 -179.452 82.622 -173.251
RightUpLeg  -22.4972 -1.62885 3.17288
RightLeg  21.5296 1.45932 0.402897
RightFoot  5.32717 0.298394 -1.82737
RightToes  -1.33073e-015 0 -3.6325e-017
Spine  4.56516 -0.632837 7.98237
Spine1  9.64645 0.168045 -1.73226
HEad  -20.7381 -0.901983 -2.89524
LeftShoulder1  -0.112229 3.7881 -33.4169
LeftArm  16.3988 -7.96107 -49.1526
LeftForeArm  13.8571 -27.7385 -5.2371
LeftHand  -0.0900717 3.67917 5.12491
RightShoulder  -0.887455 -5.86204 31.0237
RightArm  16.7658 5.46636 45.0903
RightForeArm  11.3849 10.671 7.51796
RightHand  -0.0522891 5.17908 -0.889524
LeftUpLeg  18.8931 4.22566 -1.38781
LeftLeg  26.4818 -6.16062 -3.05713
LeftFoot  -21.7839 0.0207176 -1.30983
LeftToes  -1.63346e-009 7.54925e-011 9.86887e-012
815
root  41.4236 36.8201 5.51722 -169.027 82.2749 -163.188
RightUpLeg  -23.1423 -0.664995 4.77239
RightLeg  26.7946 0.396314 -0.0136621
RightFoot  2.35387 0.511728 -4.0884
RightToes  -1.33073e-015 0 -3.6325e-017
Spine  3.64141 -0.343375 10.5536
Spine1  9.97783 0.732324 -1.49407
HEad  -20.1402 -1.87555 -4.16481
LeftShoulder1  -0.127509 3.81904 -34.283
LeftArm  18.8442 -6.07053 -48.4838
LeftForeArm  11.447 -26.0665 -4.98454
LeftHand  -0.0662476 4.43727 5.9124
RightShoulder  -0.908922 -5.92792 30.8888
RightArm  17.1737 4.58325 45.0097
RightForeArm  9.66951 10.7306 7.64992
RightHand  -0.151129 4.84258 -2.01058
LeftUpLeg  15.244 5.11682 2.05132
LeftLeg  36.6617 -8.7828 -6.59319
LeftFoot  -15.3724 -0.114354 -6.727
LeftToes  -1.63346e-009 7.54925e-011 9.86887e-012
816
root  42.8413 36.7779 5.47764 -166.125 80.1317 -160.481
RightUpLeg  -22.5325 -1.73707 5.84932
RightLeg  29.9978 -0.643761 -0.649477
RightFoot  -1.36929 0.397968 -4.68251
RightToes  -1.33073e-015 0 -3.6325e-017
Spine  3.29098 -0.759135 11.0774
Spine1  9.9913 0.225652 0.0691801
HEad  -20.206 -2.57069 -4.50187
LeftShoulder1  -0.153064 3.87902 -34.6152
LeftArm  21.0188 -4.08955 -47.8306
LeftForeArm  11.6318 -24.373 -4.60349
LeftHand  -0.0609061 4.72034 5.14237
RightShoulder  -0.891255 -5.89134 30.7134
RightArm  16.6297 4.02859 45.5848
RightForeArm  9.39691 10.6712 7.55659
RightHand  -0.140859 5.44909 -1.8236
LeftUpLeg  8.87367 3.22723 4.17371
LeftLeg  48.5644 -8.1497 -9.31774
LeftFoot  -2.39637 0.86135 -10.8753
LeftToes  -1.63346e-009 7.54925e-011 9.86887e-012
